<svg xmlns="http://www.w3.org/2000/svg" viewBox="10 0 480 494" fill="none">
<path d="M146.641 30.873H357.177C360.755 30.873 364.187 32.2945 366.717 34.8246L436.002 104.109C438.532 106.639 439.953 110.071 439.953 113.649V370.498" stroke="#0C0C0B" stroke-width="15.3744"/>
<path d="M100.348 81.043H310.884C314.462 81.043 317.894 82.4644 320.424 84.9945L389.709 154.279C392.239 156.809 393.66 160.241 393.66 163.819V420.668" stroke="#0C0C0B" stroke-width="15.3744"/>
<path d="M343.4 204.437C345.93 206.967 347.352 210.399 347.352 213.977V457.335C347.352 464.786 341.311 470.826 333.86 470.826H67.5306C60.0794 470.826 54.0391 464.786 54.0391 457.335V144.693C54.0391 137.242 60.0794 131.201 67.5306 131.201H264.576C268.154 131.201 271.585 132.623 274.116 135.153L343.4 204.437Z" fill="#0C0C0B"/>
<path d="M199.938 174.873V295.658C199.938 298.708 202.41 301.18 205.46 301.18H326.245C326.245 301.18 263.702 291.902 236.937 265.14C210.167 238.373 199.938 174.873 199.938 174.873Z" fill="#FFFFFF"/>
<path d="M199.936 427.51V306.725C199.936 303.675 197.464 301.203 194.414 301.203H73.6289C73.6289 301.203 136.172 310.482 162.937 337.244C189.707 364.01 199.936 427.51 199.936 427.51Z" fill="#FFFFFF"/>
</svg>
